<?xml version="1.0" standalone="no"?>
<!DOCTYPE svg PUBLIC "-//W3C//DTD SVG 20010904//EN"
 "http://www.w3.org/TR/2001/REC-SVG-20010904/DTD/svg10.dtd">
<svg version="1.0" xmlns="http://www.w3.org/2000/svg"
 width="246.000000pt" height="246.000000pt" viewBox="0 0 246.000000 246.000000"
 preserveAspectRatio="xMidYMid meet">
<metadata>
Created by potrace 1.11, written by Peter Selinger 2001-2013
</metadata>
<g transform="translate(0.000000,246.000000) scale(0.100000,-0.100000)"
fill="#000000" stroke="none">
<path d="M0 1230 l0 -1230 1230 0 1230 0 0 1230 0 1230 -1230 0 -1230 0 0
-1230z m1805 816 c63 -31 139 -109 168 -174 16 -35 21 -67 22 -127 0 -71 -4
-88 -33 -147 -29 -59 -69 -106 -128 -148 -21 -15 -21 -18 -10 -193 l11 -178
64 -31 c78 -37 141 -100 184 -182 31 -58 32 -66 32 -176 0 -107 -2 -119 -29
-172 -90 -177 -289 -266 -472 -210 -168 51 -274 187 -282 360 l-4 83 -230 115
-231 115 -60 -32 c-78 -42 -168 -50 -253 -23 -77 24 -172 114 -197 188 -73
215 76 430 297 429 42 -1 88 -8 112 -18 l42 -16 258 123 258 123 11 55 c22
111 107 211 213 249 78 28 183 23 257 -13z"/>
<path d="M1620 2019 c-67 -10 -95 -24 -146 -71 -56 -52 -83 -102 -92 -175 l-7
-56 -283 -134 -284 -134 -54 21 c-70 26 -146 25 -204 -1 -204 -92 -214 -375
-16 -476 41 -21 65 -27 121 -27 70 0 88 6 177 62 28 17 28 17 290 -114 l263
-131 0 -89 c0 -81 3 -96 33 -156 102 -208 362 -258 539 -104 25 22 56 64 75
104 30 61 33 75 33 157 -1 74 -5 99 -25 140 -36 74 -116 148 -192 177 l-63 24
-12 164 c-18 257 -17 277 8 285 38 12 111 88 135 140 28 60 32 165 9 221 -51
122 -175 193 -305 173z m-154 -480 c10 -12 44 -34 75 -49 l56 -29 6 -93 c4
-51 10 -150 13 -220 l7 -126 -37 -16 c-21 -9 -55 -29 -76 -46 -21 -16 -43 -30
-49 -30 -14 0 -528 257 -534 267 -3 4 -8 34 -12 65 l-7 57 168 81 c93 44 205
97 249 119 92 46 115 49 141 20z"/>
<path d="M1190 1395 c-207 -99 -215 -104 -218 -134 l-3 -30 243 -122 243 -121
58 38 c55 37 58 40 53 74 -3 19 -8 99 -12 176 l-6 142 -65 41 c-35 23 -67 41
-71 40 -4 -1 -104 -47 -222 -104z"/>
</g>
</svg>
